<svg width="18" height="18" viewBox="0 0 18 18" fill="none" xmlns="http://www.w3.org/2000/svg">
<path d="M9.99994 17.9999V15.9999H11.9999V17.9999H9.99994ZM7.99995 15.9999V10.9999H9.99994V15.9999H7.99995ZM15.9999 12.9999V8.99995H17.9999V12.9999H15.9999ZM13.9999 8.99995V6.99996H15.9999V8.99995H13.9999ZM1.99999 10.9999V8.99995H3.99998V10.9999H1.99999ZM0 8.99995V6.99996H1.99999V8.99995H0ZM8.99995 1.99999V0H10.9999V1.99999H8.99995ZM1.49999 4.49997H4.49997V1.49999H1.49999V4.49997ZM0 5.99997V0H5.99997V5.99997H0ZM1.49999 16.4999H4.49997V13.4999H1.49999V16.4999ZM0 17.9999V11.9999H5.99997V17.9999H0ZM13.4999 4.49997H16.4999V1.49999H13.4999V4.49997ZM11.9999 5.99997V0H17.9999V5.99997H11.9999ZM13.9999 17.9999V14.9999H11.9999V12.9999H15.9999V15.9999H17.9999V17.9999H13.9999ZM9.99994 10.9999V8.99995H13.9999V10.9999H9.99994ZM5.99997 10.9999V8.99995H3.99998V6.99996H9.99994V8.99995H7.99995V10.9999H5.99997ZM6.99996 5.99997V1.99999H8.99995V3.99998H10.9999V5.99997H6.99996ZM2.24999 3.74998V2.24999H3.74998V3.74998H2.24999ZM2.24999 15.7499V14.2499H3.74998V15.7499H2.24999ZM14.2499 3.74998V2.24999H15.7499V3.74998H14.2499Z" fill="white"/>
</svg>
